<svg width="340" height="60" fill="none" xmlns="http://www.w3.org/2000/svg"><path d="M14 8c0-1.5-1.57-3-3.5-3H5v12h6.25c1.79 0 3.25-1.71 3.25-3.5 0-1.3-.9-2.48-2-3 .83-.58 1.5-1 1.5-2.5zM7.5 7H10a1.5 1.5 0 010 3H7.5V7zm3 8h-3v-3h3a1.5 1.5 0 110 3zM32 5v2h2.58l-3.66 8H28v2h8v-2h-2.58l3.66-8H40V5h-8zM50.22 13.83a6 6 0 001.62.85l.61-1.8a4.1 4.1 0 114.04-.8l1.26 1.42a6 6 0 10-7.53.33z" fill="#535A60"/><path d="M53.65 8.23a6 6 0 00-1.6-.87l-.65 1.79a4.1 4.1 0 11-4.05.73l-1.23-1.45a6 6 0 107.53-.2zM63 7c0-1.1.9-2 2-2h3a2 2 0 012 2v7l-1.75 3H66l1.75-3H65a2 2 0 01-2-2V7zM71 7c0-1.1.9-2 2-2h3a2 2 0 012 2v7l-1.75 3H74l1.75-3H73a2 2 0 01-2-2V7zM103 5c0-1.1.9-2 2-2h12a2 2 0 012 2v12a2 2 0 01-2 2h-12a2 2 0 01-2-2V5zm4.5 7.5L104 17h14l-4.5-6-3.5 4.51-2.5-3.01zm0-4.5a1.5 1.5 0 100-3 1.5 1.5 0 000 3zM184 10h14v2h-14v-2z" fill="#535A60"/><path opacity=".4" d="M184 4h14v1h-14V4zm0 3h14v1h-14V7zm0 7h14v1h-14v-1zm0 3h14v1h-14v-1z" fill="#535A60"/><path d="M251 3a8 8 0 100 16 8 8 0 000-16zm.81 12.13c-.02.71-.55 1.15-1.24 1.13-.66-.02-1.17-.49-1.15-1.2.02-.72.56-1.18 1.22-1.16.7.03 1.2.51 1.17 1.23zm1.96-5.13c-.3.34-.65.65-1.02.91l-.53.37c-.26.2-.42.43-.5.69-.05.25-.08.5-.09.75 0 .05-.03.16-.18.16h-1.57c-.16 0-.18-.1-.18-.15.03-.66.12-1.21.4-1.66.4-.49.88-.9 1.43-1.22.16-.12.28-.25.38-.39a1.34 1.34 0 00.02-1.71c-.24-.31-.51-.46-1.03-.46-.51 0-.8.26-1.02.6-.21.33-.18.73-.18 1.1h-1.95c0-1.38.35-2.25 1.1-2.76.52-.35 1.17-.5 1.93-.5 1 0 1.79.18 2.49.71.64.5.98 1.18.98 2.12 0 .57-.2 1.05-.48 1.44z" fill="#535A60"/><path fill-rule="evenodd" clip-rule="evenodd" d="M262 5c0-1.1.9-2 2-2h10l4 4v10a2 2 0 01-2 2h-12a2 2 0 01-2-2V5zm9.71 2l-1.4 1.41 2.58 2.59-2.59 2.59 1.41 1.41 4-4-4-4zm-2 1.41L268.31 7l-4 4 4 4 1.4-1.41-2.59-2.59 2.6-2.59zM230 3c2.2 0 4.2.9 5.65 2.35L238 3v7h-7l3.22-3.22A5.92 5.92 0 00230 5a6 6 0 000 12v2a8 8 0 110-16z" fill="#535A60"/><path fill="#535A60" d="M163 4h14v2h-14zM165 7h10v2h-10z"/><path opacity=".4" fill="#535A60" d="M163 11h14v1h-14zM165 14h10v1h-10zM163 17h14v1h-14z"/><path d="M87 9.5V7.2c0-.97.84-1.36 2-1.36V4.02c-2.5 0-3.96.98-3.96 3.1v2.1c0 .4-.33.8-.84.8H83v1.97h1.2c.51 0 .84.4.84.8v2.1c0 2.11 1.46 3.1 3.96 3.1v-1.82c-1.16 0-2-.4-2-1.37v-2.3c0-.88-.68-1.4-1.12-1.5.44-.1 1.12-.61 1.12-1.5zM94 9.5V7.2c0-.97-.84-1.36-2-1.36V4.02c2.5 0 3.96.98 3.96 3.1v2.1c0 .4.33.8.84.8H98v1.97h-1.2c-.51 0-.84.4-.84.8v2.1c0 2.11-1.46 3.1-3.96 3.1v-1.82c1.16 0 2-.4 2-1.37v-2.3c0-.88.68-1.4 1.12-1.5A1.55 1.55 0 0194 9.5z" fill="#535A60"/><path fill-rule="evenodd" clip-rule="evenodd" d="M124 8h1V4h-2v1h1v3zm.8 2H123V9h3v.9l-1.8 2.1h1.8v1h-3v-.9l1.8-2.1zm-1.8 5v-1h3v4h-3v-1h2v-.5h-1v-1h1V15h-2zm5-8V5h9v2h-9zm0 10h9v-2h-9v2zm9-5h-9v-2h9v2z" fill="#535A60"/><path d="M146.25 6a1.25 1.25 0 11-2.5 0 1.25 1.25 0 012.5 0zM157 7h-9V5h9v2zM157 17h-9v-2h9v2zM148 12h9v-2h-9v2zM146.25 16a1.25 1.25 0 11-2.5 0 1.25 1.25 0 012.5 0zM145 12.25a1.25 1.25 0 100-2.5 1.25 1.25 0 000 2.5z" fill="#535A60"/><path fill-rule="evenodd" clip-rule="evenodd" d="M210 3c-2.2 0-4.2.9-5.65 2.35L202 3v7h7l-3.22-3.22A5.92 5.92 0 01210 5a6 6 0 010 12v2a8 8 0 100-16z" fill="#535A60"/><path d="M14 28c0-1.5-1.57-3-3.5-3H5v12h6.25c1.79 0 3.25-1.71 3.25-3.5 0-1.3-.9-2.48-2-3 .83-.58 1.5-1 1.5-2.5zm-6.5-1H10a1.5 1.5 0 110 3H7.5v-3zm3 8h-3v-3h3a1.5 1.5 0 110 3zM32 25v2h2.58l-3.66 8H28v2h8v-2h-2.58l3.66-8H40v-2h-8zM50.22 33.83a6 6 0 001.62.85l.61-1.8a4.1 4.1 0 114.04-.8l1.26 1.42a6 6 0 10-7.53.33z" fill="#C8CCD0"/><path d="M53.65 28.23a6 6 0 00-1.6-.87l-.65 1.79a4.1 4.1 0 11-4.05.73l-1.23-1.45a6 6 0 107.53-.2zM63 27c0-1.1.9-2 2-2h3a2 2 0 012 2v7l-1.75 3H66l1.75-3H65a2 2 0 01-2-2v-5zM71 27c0-1.1.9-2 2-2h3a2 2 0 012 2v7l-1.75 3H74l1.75-3H73a2 2 0 01-2-2v-5zM103 25c0-1.1.9-2 2-2h12a2 2 0 012 2v12a2 2 0 01-2 2h-12a2 2 0 01-2-2V25zm4.5 7.5L104 37h14l-4.5-6-3.5 4.51-2.5-3.01zm0-4.5a1.5 1.5 0 100-3 1.5 1.5 0 000 3zM184 30h14v2h-14v-2z" fill="#C8CCD0"/><path opacity=".4" d="M184 24h14v1h-14v-1zm0 3h14v1h-14v-1zm0 7h14v1h-14v-1zm0 3h14v1h-14v-1z" fill="#C8CCD0"/><path d="M251 23a8 8 0 100 16 8 8 0 000-16zm.81 12.13c-.02.71-.55 1.15-1.24 1.13-.66-.02-1.17-.49-1.15-1.2.02-.72.56-1.18 1.22-1.16.7.03 1.2.51 1.17 1.23zm1.96-5.13c-.3.34-.65.65-1.02.91l-.53.37c-.26.2-.42.43-.5.69-.05.25-.08.5-.09.75 0 .05-.03.16-.18.16h-1.57c-.16 0-.18-.1-.18-.15.03-.66.12-1.21.4-1.66.4-.49.88-.9 1.43-1.22.16-.12.28-.25.38-.39a1.34 1.34 0 00.02-1.71c-.24-.31-.51-.46-1.03-.46-.51 0-.8.26-1.02.6-.21.33-.18.73-.18 1.1h-1.95c0-1.38.35-2.25 1.1-2.76.52-.35 1.17-.5 1.93-.5 1 0 1.79.18 2.49.71.64.5.98 1.18.98 2.12 0 .57-.2 1.05-.48 1.44z" fill="#C8CCD0"/><path fill-rule="evenodd" clip-rule="evenodd" d="M262 25c0-1.1.9-2 2-2h10l4 4v10a2 2 0 01-2 2h-12a2 2 0 01-2-2V25zm9.71 2l-1.4 1.41 2.58 2.59-2.59 2.59 1.41 1.41 4-4-4-4zm-2 1.41l-1.4-1.41-4 4 4 4 1.4-1.41-2.59-2.59 2.6-2.59zM230 23c2.2 0 4.2.9 5.65 2.35L238 23v7h-7l3.22-3.22A5.92 5.92 0 00230 25a6 6 0 000 12v2a8 8 0 110-16z" fill="#C8CCD0"/><path fill="#C8CCD0" d="M163 24h14v2h-14zM165 27h10v2h-10z"/><path opacity=".4" fill="#C8CCD0" d="M163 31h14v1h-14zM165 34h10v1h-10zM163 37h14v1h-14z"/><path d="M87 29.5v-2.3c0-.97.84-1.36 2-1.36v-1.82c-2.5 0-3.96.98-3.96 3.1v2.1c0 .4-.33.8-.84.8H83v1.97h1.2c.51 0 .84.4.84.8v2.1c0 2.11 1.46 3.1 3.96 3.1v-1.82c-1.16 0-2-.4-2-1.37v-2.3c0-.88-.68-1.4-1.12-1.5.44-.1 1.12-.61 1.12-1.5zM94 29.48v-2.3c0-.96-.84-1.36-2-1.36V24c2.5 0 3.96.98 3.96 3.1v2.1c0 .4.33.8.84.8H98v1.97h-1.2c-.51 0-.84.4-.84.8v2.1c0 2.12-1.46 3.1-3.96 3.1v-1.82c1.16 0 2-.4 2-1.36v-2.3c0-.89.68-1.4 1.12-1.5a1.55 1.55 0 01-1.12-1.5z" fill="#C8CCD0"/><path fill-rule="evenodd" clip-rule="evenodd" d="M124 28h1v-4h-2v1h1v3zm.8 2H123v-1h3v.9l-1.8 2.1h1.8v1h-3v-.9l1.8-2.1zm-1.8 5v-1h3v4h-3v-1h2v-.5h-1v-1h1V35h-2zm5-8v-2h9v2h-9zm0 10h9v-2h-9v2zm9-5h-9v-2h9v2z" fill="#C8CCD0"/><path d="M146.25 26a1.25 1.25 0 11-2.5 0 1.25 1.25 0 012.5 0zM157 27h-9v-2h9v2zM157 37h-9v-2h9v2zM148 32h9v-2h-9v2zM146.25 36a1.25 1.25 0 11-2.5 0 1.25 1.25 0 012.5 0zM145 32.25a1.25 1.25 0 100-2.5 1.25 1.25 0 000 2.5z" fill="#C8CCD0"/><path fill-rule="evenodd" clip-rule="evenodd" d="M210 23c-2.2 0-4.2.9-5.65 2.35L202 23v7h7l-3.22-3.22A5.92 5.92 0 01210 25a6 6 0 010 12v2a8 8 0 100-16z" fill="#C8CCD0"/><path d="M14 48c0-1.5-1.57-3-3.5-3H5v12h6.25c1.79 0 3.25-1.71 3.25-3.5 0-1.3-.9-2.48-2-3 .83-.58 1.5-1 1.5-2.5zm-6.5-1H10a1.5 1.5 0 110 3H7.5v-3zm3 8h-3v-3h3a1.5 1.5 0 110 3zM32 45v2h2.58l-3.66 8H28v2h8v-2h-2.58l3.66-8H40v-2h-8zM50.22 53.83a6 6 0 001.62.85l.61-1.8a4.1 4.1 0 114.04-.8l1.26 1.42a6 6 0 10-7.53.33z" fill="#0C0D0E"/><path d="M53.65 48.23a6 6 0 00-1.6-.87l-.65 1.79a4.1 4.1 0 11-4.05.73l-1.23-1.45a6 6 0 107.53-.2zM63 47c0-1.1.9-2 2-2h3a2 2 0 012 2v7l-1.75 3H66l1.75-3H65a2 2 0 01-2-2v-5zM71 47c0-1.1.9-2 2-2h3a2 2 0 012 2v7l-1.75 3H74l1.75-3H73a2 2 0 01-2-2v-5zM103 45c0-1.1.9-2 2-2h12a2 2 0 012 2v12a2 2 0 01-2 2h-12a2 2 0 01-2-2V45zm4.5 7.5L104 57h14l-4.5-6-3.5 4.51-2.5-3.01zm0-4.5a1.5 1.5 0 100-3 1.5 1.5 0 000 3zM184 50h14v2h-14v-2z" fill="#0C0D0E"/><path opacity=".4" d="M184 44h14v1h-14v-1zm0 3h14v1h-14v-1zm0 7h14v1h-14v-1zm0 3h14v1h-14v-1z" fill="#0C0D0E"/><path d="M251 43a8 8 0 100 16 8 8 0 000-16zm.81 12.13c-.02.71-.55 1.15-1.24 1.13-.66-.02-1.17-.49-1.15-1.2.02-.72.56-1.18 1.22-1.16.7.03 1.2.51 1.17 1.23zm1.96-5.13c-.3.34-.65.65-1.02.91l-.53.37c-.26.2-.42.43-.5.69-.05.25-.08.5-.09.75 0 .05-.03.16-.18.16h-1.57c-.16 0-.18-.1-.18-.15.03-.66.12-1.21.4-1.66.4-.49.88-.9 1.43-1.22.16-.12.28-.25.38-.39a1.34 1.34 0 00.02-1.71c-.24-.31-.51-.46-1.03-.46-.51 0-.8.26-1.02.6-.21.33-.18.73-.18 1.1h-1.95c0-1.38.35-2.25 1.1-2.76.52-.35 1.17-.5 1.93-.5 1 0 1.79.18 2.49.71.64.5.98 1.18.98 2.12 0 .57-.2 1.05-.48 1.44z" fill="#0C0D0E"/><path fill-rule="evenodd" clip-rule="evenodd" d="M262 45c0-1.1.9-2 2-2h10l4 4v10a2 2 0 01-2 2h-12a2 2 0 01-2-2V45zm9.71 2l-1.4 1.41 2.58 2.59-2.59 2.59 1.41 1.41 4-4-4-4zm-2 1.41l-1.4-1.41-4 4 4 4 1.4-1.41-2.59-2.59 2.6-2.59zM230 43c2.2 0 4.2.9 5.65 2.35L238 43v7h-7l3.22-3.22A5.92 5.92 0 00230 45a6 6 0 000 12v2a8 8 0 110-16z" fill="#0C0D0E"/><path fill="#0C0D0E" d="M163 44h14v2h-14zM165 47h10v2h-10z"/><path opacity=".4" fill="#0C0D0E" d="M163 51h14v1h-14zM165 54h10v1h-10zM163 57h14v1h-14z"/><path d="M87 49.5v-2.3c0-.97.84-1.36 2-1.36v-1.82c-2.5 0-3.96.98-3.96 3.1v2.1c0 .4-.33.8-.84.8H83v1.97h1.2c.51 0 .84.4.84.8v2.1c0 2.11 1.46 3.1 3.96 3.1v-1.82c-1.16 0-2-.4-2-1.37v-2.3c0-.88-.68-1.4-1.12-1.5.44-.1 1.12-.61 1.12-1.5zM94 49.48v-2.3c0-.96-.84-1.36-2-1.36V44c2.5 0 3.96.98 3.96 3.1v2.1c0 .4.33.8.84.8H98v1.97h-1.2c-.51 0-.84.4-.84.8v2.1c0 2.12-1.46 3.1-3.96 3.1v-1.82c1.16 0 2-.4 2-1.36v-2.3c0-.89.68-1.4 1.12-1.5a1.55 1.55 0 01-1.12-1.5z" fill="#0C0D0E"/><path fill-rule="evenodd" clip-rule="evenodd" d="M124 48h1v-4h-2v1h1v3zm.8 2H123v-1h3v.9l-1.8 2.1h1.8v1h-3v-.9l1.8-2.1zm-1.8 5v-1h3v4h-3v-1h2v-.5h-1v-1h1V55h-2zm5-8v-2h9v2h-9zm0 10h9v-2h-9v2zm9-5h-9v-2h9v2z" fill="#0C0D0E"/><path d="M146.25 46a1.25 1.25 0 11-2.5 0 1.25 1.25 0 012.5 0zM157 47h-9v-2h9v2zM157 57h-9v-2h9v2zM148 52h9v-2h-9v2zM146.25 56a1.25 1.25 0 11-2.5 0 1.25 1.25 0 012.5 0zM145 52.25a1.25 1.25 0 100-2.5 1.25 1.25 0 000 2.5z" fill="#0C0D0E"/><path fill-rule="evenodd" clip-rule="evenodd" d="M210 43c-2.2 0-4.2.9-5.65 2.35L202 43v7h7l-3.22-3.22A5.92 5.92 0 01210 45a6 6 0 010 12v2a8 8 0 100-16z" fill="#0C0D0E"/><path d="M295.47 18h-3.1l-5.35-7.56c-.84.47-1.33 1.38-1.46 2.73L285 18h-2.62l.56-4.83c.27-2.27 1.2-3.8 2.76-4.57l-3.27-4.59h3.1l4.49 6.27c.36-.24.65-.5.86-.78.22-.3.39-.7.51-1.22.15-.54.35-1.96.6-4.27h2.62l-.33 2.9a8.24 8.24 0 01-.89 3.13 6.4 6.4 0 01-2.1 2.05l4.18 5.91z" fill="#535A60"/><path d="M295.47 38h-3.1l-5.35-7.56c-.84.47-1.33 1.38-1.46 2.73L285 38h-2.62l.56-4.83c.27-2.27 1.2-3.8 2.76-4.57l-3.27-4.59h3.1l4.49 6.27c.36-.24.65-.5.86-.79.22-.28.39-.69.51-1.21.15-.54.35-1.96.6-4.27h2.62l-.33 2.9a8.24 8.24 0 01-.89 3.13 6.4 6.4 0 01-2.1 2.05l4.18 5.91z" fill="#C8CCD0"/><path d="M295.47 58h-3.1l-5.35-7.56c-.84.47-1.33 1.38-1.46 2.73L285 58h-2.62l.56-4.83c.27-2.27 1.2-3.8 2.76-4.57l-3.27-4.59h3.1l4.49 6.27c.36-.24.65-.5.86-.79.22-.28.39-.69.51-1.21.15-.54.35-1.96.6-4.27h2.62l-.33 2.9a8.24 8.24 0 01-.89 3.13 6.4 6.4 0 01-2.1 2.05l4.18 5.91z" fill="#0C0D0E"/><path fill-rule="evenodd" clip-rule="evenodd" d="M303 3a2 2 0 00-2 2v12c0 1.1.9 2 2 2h12a2 2 0 002-2V5a2 2 0 00-2-2h-12zm12 2h-12v3h12V5zm-12 5h3v7h-3v-7zm12 0h-7v7h7v-7z" fill="#535A60"/><path fill-rule="evenodd" clip-rule="evenodd" d="M303 43a2 2 0 00-2 2v12c0 1.1.9 2 2 2h12a2 2 0 002-2V45a2 2 0 00-2-2h-12zm12 2h-12v3h12v-3zm-12 5h3v7h-3v-7zm12 0h-7v7h7v-7z" fill="#0C0D0E"/><path fill-rule="evenodd" clip-rule="evenodd" d="M303 23a2 2 0 00-2 2v12c0 1.1.9 2 2 2h12a2 2 0 002-2V25a2 2 0 00-2-2h-12zm12 2h-12v3h12v-3zm-12 5h3v7h-3v-7zm12 0h-7v7h7v-7z" fill="#C8CCD0"/><path fill-rule="evenodd" clip-rule="evenodd" d="M328 2h-2v2h-2a2 2 0 00-2 2v10c0 1.1.9 2 2 2h4.17l2.42 1.82 2.91-2.9 1.09 1.08H336a2 2 0 002-2V6a2 2 0 00-2-2h-4V2l-4 3V2zm0 3l4 3V6h4v5h-5V9h-2v6h2v-2h5v3h-.59l-1.91-1.91-3.1 3.09-1.57-1.18H324v-3h2v2h2V9h-2v2h-2V6h2v2h2V5z" fill="#535A60"/><path fill-rule="evenodd" clip-rule="evenodd" d="M328 22h-2v2h-2a2 2 0 00-2 2v10c0 1.1.9 2 2 2h4.17l2.42 1.82 2.91-2.9 1.09 1.08H336a2 2 0 002-2V26a2 2 0 00-2-2h-4v-2l-4 3v-3zm0 3l4 3v-2h4v5h-5v-2h-2v6h2v-2h5v3h-.59l-1.91-1.91-3.1 3.09-1.57-1.18H324v-3h2v2h2v-6h-2v2h-2v-5h2v2h2v-3z" fill="#C8CCD0"/><path fill-rule="evenodd" clip-rule="evenodd" d="M328 42h-2v2h-2a2 2 0 00-2 2v10c0 1.1.9 2 2 2h4.17l2.42 1.82 2.91-2.9 1.09 1.08H336a2 2 0 002-2V46a2 2 0 00-2-2h-4v-2l-4 3v-3zm0 3l4 3v-2h4v5h-5v-2h-2v6h2v-2h5v3h-.59l-1.91-1.91-3.1 3.09-1.57-1.18H324v-3h2v2h2v-6h-2v2h-2v-5h2v2h2v-3z" fill="#0C0D0E"/></svg>