<?xml version="1.0" encoding="UTF-8" standalone="no"?>
<!-- Created with Inkscape (http://www.inkscape.org/) -->

<svg
   xmlns:dc="http://purl.org/dc/elements/1.1/"
   xmlns:cc="http://creativecommons.org/ns#"
   xmlns:rdf="http://www.w3.org/1999/02/22-rdf-syntax-ns#"
   xmlns:svg="http://www.w3.org/2000/svg"
   xmlns="http://www.w3.org/2000/svg"
   xmlns:sodipodi="http://sodipodi.sourceforge.net/DTD/sodipodi-0.dtd"
   xmlns:inkscape="http://www.inkscape.org/namespaces/inkscape"
   width="259"
   height="74.110985"
   id="svg2909"
   version="1.1"
   inkscape:version="0.47 r22583"
   sodipodi:docname="drawing-1-3.svg">
  <defs
     id="defs2911">
    <inkscape:perspective
       sodipodi:type="inkscape:persp3d"
       inkscape:vp_x="0 : 526.18109 : 1"
       inkscape:vp_y="0 : 1000 : 0"
       inkscape:vp_z="744.09448 : 526.18109 : 1"
       inkscape:persp3d-origin="372.04724 : 350.78739 : 1"
       id="perspective2917" />
    <inkscape:perspective
       id="perspective3552"
       inkscape:persp3d-origin="0.5 : 0.33333333 : 1"
       inkscape:vp_z="1 : 0.5 : 1"
       inkscape:vp_y="0 : 1000 : 0"
       inkscape:vp_x="0 : 0.5 : 1"
       sodipodi:type="inkscape:persp3d" />
  </defs>
  <sodipodi:namedview
     id="base"
     pagecolor="#ffffff"
     bordercolor="#666666"
     borderopacity="1.0"
     inkscape:pageopacity="0.0"
     inkscape:pageshadow="2"
     inkscape:zoom="1.52"
     inkscape:cx="167.31504"
     inkscape:cy="42.387236"
     inkscape:document-units="px"
     inkscape:current-layer="layer1"
     showgrid="true"
     inkscape:window-width="1280"
     inkscape:window-height="725"
     inkscape:window-x="0"
     inkscape:window-y="24"
     inkscape:window-maximized="1">
    <inkscape:grid
       type="xygrid"
       id="grid2919"
       empspacing="5"
       visible="true"
       enabled="true"
       snapvisiblegridlinesonly="true" />
  </sodipodi:namedview>
  <metadata
     id="metadata2914">
    <rdf:RDF>
      <cc:Work
         rdf:about="">
        <dc:format>image/svg+xml</dc:format>
        <dc:type
           rdf:resource="http://purl.org/dc/dcmitype/StillImage" />
        <dc:title></dc:title>
      </cc:Work>
    </rdf:RDF>
  </metadata>
  <g
     inkscape:label="Layer 1"
     inkscape:groupmode="layer"
     id="layer1"
     transform="translate(30.03923,-990.35687)">
    <rect
       style="fill:#4d4d4d;fill-opacity:1;stroke:none"
       id="rect3449"
       width="98.947441"
       height="59.71817"
       x="130.01334"
       y="990.38647" />
    <text
       xml:space="preserve"
       style="font-size:47.4881897px;font-style:normal;font-weight:normal;fill:#000000;fill-opacity:1;stroke:none;font-family:Bitstream Vera Sans"
       x="208.29501"
       y="677.62152"
       id="text3443"
       transform="scale(0.64572791,1.5486399)"><tspan
         sodipodi:role="line"
         id="tspan3445"
         x="208.29501"
         y="677.62152"
         style="font-style:normal;font-variant:normal;font-weight:bold;font-stretch:normal;font-family:Tlwg Typo;-inkscape-font-specification:Tlwg Typo Medium">Group</tspan></text>
    <rect
       style="fill:#808000;fill-opacity:1;stroke:none"
       id="rect3447"
       width="117.84474"
       height="59.71817"
       x="12.11603"
       y="990.35687" />
    <text
       xml:space="preserve"
       style="font-size:48.89379883px;font-style:normal;font-weight:normal;fill:#000000;fill-opacity:1;stroke:none;font-family:Bitstream Vera Sans"
       x="24.318556"
       y="657.85895"
       id="text3439"
       transform="scale(0.62716431,1.5944785)"><tspan
         sodipodi:role="line"
         id="tspan3441"
         x="24.318556"
         y="657.85895"
         style="font-style:normal;font-variant:normal;font-weight:bold;font-stretch:normal;font-family:Tlwg Typist;-inkscape-font-specification:Tlwg Typist Medium">Kritha</tspan></text>
    <rect
       style="fill:#000000;fill-opacity:1;stroke:none"
       id="rect3209"
       width="6.5522323"
       height="9.2554693"
       x="-30.03923"
       y="1041.4388" />
    <rect
       y="1021.0772"
       x="-8.4168606"
       height="9.2554693"
       width="6.5522323"
       id="rect3211"
       style="fill:#000000;fill-opacity:1;stroke:none" />
    <rect
       style="fill:#000000;fill-opacity:1;stroke:none"
       id="rect3213"
       width="6.5522323"
       height="9.2554693"
       x="-8.4168606"
       y="1031.2582" />
    <rect
       y="1041.4388"
       x="-8.4168606"
       height="9.2554693"
       width="6.5522323"
       id="rect3215"
       style="fill:#000000;fill-opacity:1;stroke:none" />
    <rect
       style="fill:#000000;fill-opacity:1;stroke:none"
       id="rect3217"
       width="6.5522323"
       height="9.2554693"
       x="-15.624319"
       y="1021.0772" />
    <rect
       y="1031.2582"
       x="-15.624319"
       height="9.2554693"
       width="6.5522323"
       id="rect3219"
       style="fill:#000000;fill-opacity:1;stroke:none" />
    <rect
       style="fill:#000000;fill-opacity:1;stroke:none"
       id="rect3221"
       width="6.5522323"
       height="9.2554693"
       x="-15.624319"
       y="1041.4388" />
    <rect
       y="1031.2582"
       x="-22.831781"
       height="9.2554693"
       width="6.5522323"
       id="rect3223"
       style="fill:#000000;fill-opacity:1;stroke:none" />
    <rect
       style="fill:#000000;fill-opacity:1;stroke:none"
       id="rect3225"
       width="6.5522323"
       height="9.2554693"
       x="-22.831781"
       y="1041.4388" />
    <rect
       style="fill:#000000;fill-opacity:1;stroke:none"
       id="rect3227"
       width="6.5522323"
       height="9.2554693"
       x="-1.2094181"
       y="1021.0772" />
    <rect
       y="1031.2582"
       x="-1.2094181"
       height="9.2554693"
       width="6.5522323"
       id="rect3229"
       style="fill:#000000;fill-opacity:1;stroke:none" />
    <rect
       style="fill:#000000;fill-opacity:1;stroke:none"
       id="rect3231"
       width="6.5522323"
       height="9.2554693"
       x="-1.2094181"
       y="1041.4388" />
    <rect
       y="1010.896"
       x="-8.4168606"
       height="9.2554693"
       width="6.5522323"
       id="rect3233"
       style="fill:#000000;fill-opacity:1;stroke:none" />
    <rect
       style="fill:#000000;fill-opacity:1;stroke:none"
       id="rect3235"
       width="6.5522323"
       height="9.2554693"
       x="5.9980416"
       y="1021.0772" />
    <rect
       y="1031.2582"
       x="5.9980416"
       height="9.2554693"
       width="6.5522323"
       id="rect3237"
       style="fill:#000000;fill-opacity:1;stroke:none" />
    <rect
       style="fill:#000000;fill-opacity:1;stroke:none"
       id="rect3239"
       width="6.5522323"
       height="9.2554693"
       x="5.9980416"
       y="1041.4388" />
    <rect
       style="fill:#000000;fill-opacity:1;stroke:none"
       id="rect3241"
       width="6.5522323"
       height="9.2554693"
       x="5.9980416"
       y="1010.896" />
    <rect
       y="1000.7149"
       x="5.9980416"
       height="9.2554693"
       width="6.5522323"
       id="rect3243"
       style="fill:#000000;fill-opacity:1;stroke:none" />
    <rect
       style="fill:#000000;fill-opacity:1;stroke:none"
       id="rect3245"
       width="6.5522323"
       height="9.2554693"
       x="-1.2094181"
       y="1000.7149" />
    <rect
       y="1010.896"
       x="-1.2094181"
       height="9.2554693"
       width="6.5522323"
       id="rect3247"
       style="fill:#000000;fill-opacity:1;stroke:none" />
    <rect
       style="fill:#000000;fill-opacity:1;stroke:none"
       id="rect3249"
       width="6.5522323"
       height="9.2554693"
       x="5.9980416"
       y="990.53394" />
    <path
       style="fill:#333333;fill-opacity:1;stroke:none"
       d="m 6.2121367,995.15091 0,-4.46346 3.1599761,0 3.1599782,0 0,4.46346 0,4.46377 -3.1599782,0 -3.1599761,0 0,-4.46377 z"
       id="path3272" />
    <path
       style="fill:#333333;fill-opacity:1;stroke:none"
       d="m -1.0106565,1005.3536 0,-4.4635 3.1599856,0 3.1599749,0 0,4.4635 0,4.4637 -3.1599749,0 -3.1599856,0 0,-4.4637 z"
       id="path3274" />
    <path
       style="fill:#333333;fill-opacity:1;stroke:none"
       d="m -8.2334473,1015.5564 0,-4.4637 3.159982,0 3.1599774,0 0,4.4637 0,4.4636 -3.1599774,0 -3.159982,0 0,-4.4636 z"
       id="path3276" />
    <path
       style="fill:#333333;fill-opacity:1;stroke:none"
       d="m -15.456196,1025.7592 0,-4.4638 3.159943,0 3.1599767,0 0,4.4638 0,4.4637 -3.1599767,0 -3.159943,0 0,-4.4637 z"
       id="path3278" />
    <path
       style="fill:#333333;fill-opacity:1;stroke:none"
       d="m -22.678978,1035.9619 0,-4.4638 3.15994,0 3.159977,0 0,4.4638 0,4.4638 -3.159977,0 -3.15994,0 0,-4.4638 z"
       id="path3280" />
    <path
       style="fill:#333333;fill-opacity:1;stroke:none"
       d="m -29.901768,1046.1643 0,-4.4636 3.159975,0 3.159945,0 0,4.4636 0,4.4639 -3.159945,0 -3.159975,0 0,-4.4639 z"
       id="path3282" />
    <path
       style="fill:#333333;fill-opacity:1;stroke:none"
       d="m 6.2121367,1005.3536 0,-4.4635 3.1599761,0 3.1599782,0 0,4.4635 0,4.4637 -3.1599782,0 -3.1599761,0 0,-4.4637 z"
       id="path3284" />
    <path
       style="fill:#333333;fill-opacity:1;stroke:none"
       d="m 6.2121367,1015.5564 0,-4.4637 3.1599761,0 3.1599782,0 0,4.4637 0,4.4636 -3.1599782,0 -3.1599761,0 0,-4.4636 z"
       id="path3286" />
    <path
       style="fill:#333333;fill-opacity:1;stroke:none"
       d="m 6.2121367,1025.7592 0,-4.4638 3.1599761,0 3.1599782,0 0,4.4638 0,4.4637 -3.1599782,0 -3.1599761,0 0,-4.4637 z"
       id="path3288" />
    <path
       style="fill:#333333;fill-opacity:1;stroke:none"
       d="m 6.2121367,1035.9619 0,-4.4638 3.1599761,0 3.1599782,0 0,4.4638 0,4.4638 -3.1599782,0 -3.1599761,0 0,-4.4638 z"
       id="path3290" />
    <path
       style="fill:#333333;fill-opacity:1;stroke:none"
       d="m 6.2121367,1046.1643 0,-4.4636 3.1599761,0 3.1599782,0 0,4.4636 0,4.4639 -3.1599782,0 -3.1599761,0 0,-4.4639 z"
       id="path3292" />
    <path
       style="fill:#333333;fill-opacity:1;stroke:none"
       d="m -22.678978,1046.1643 0,-4.4636 3.15994,0 3.159977,0 0,4.4636 0,4.4639 -3.159977,0 -3.15994,0 0,-4.4639 z"
       id="path3294" />
    <path
       style="fill:#333333;fill-opacity:1;stroke:none"
       d="m -15.456196,1046.1643 0,-4.4636 3.159943,0 3.1599767,0 0,4.4636 0,4.4639 -3.1599767,0 -3.159943,0 0,-4.4639 z"
       id="path3296" />
    <path
       style="fill:#333333;fill-opacity:1;stroke:none"
       d="m -8.2334473,1046.1643 0,-4.4636 3.159982,0 3.1599774,0 0,4.4636 0,4.4639 -3.1599774,0 -3.159982,0 0,-4.4639 z"
       id="path3298" />
    <path
       style="fill:#333333;fill-opacity:1;stroke:none"
       d="m -1.0106565,1046.1643 0,-4.4636 3.1599856,0 3.1599749,0 0,4.4636 0,4.4639 -3.1599749,0 -3.1599856,0 0,-4.4639 z"
       id="path3300" />
    <path
       style="fill:#808000;fill-opacity:1;stroke:none"
       d="m -1.0106565,1035.9619 0,-4.4638 3.1599856,0 3.1599749,0 0,4.4638 0,4.4638 -3.1599749,0 -3.1599856,0 0,-4.4638 z"
       id="path3302" />
    <path
       style="fill:#808000;fill-opacity:1;stroke:none"
       d="m -1.0106565,1025.7592 0,-4.4638 3.1599856,0 3.1599749,0 0,4.4638 0,4.4637 -3.1599749,0 -3.1599856,0 0,-4.4637 z"
       id="path3304" />
    <path
       style="fill:#808000;fill-opacity:1;stroke:none"
       d="m -1.0106565,1015.5564 0,-4.4637 3.1599856,0 3.1599749,0 0,4.4637 0,4.4636 -3.1599749,0 -3.1599856,0 0,-4.4636 z"
       id="path3306" />
    <path
       style="fill:#808000;fill-opacity:1;stroke:none"
       d="m -8.2334473,1025.7592 0,-4.4638 3.159982,0 3.1599774,0 0,4.4638 0,4.4637 -3.1599774,0 -3.159982,0 0,-4.4637 z"
       id="path3308" />
    <path
       style="fill:#808000;fill-opacity:1;stroke:none"
       d="m -8.2334473,1035.9619 0,-4.4638 3.159982,0 3.1599774,0 0,4.4638 0,4.4638 -3.1599774,0 -3.159982,0 0,-4.4638 z"
       id="path3310" />
    <path
       style="fill:#808000;fill-opacity:1;stroke:none"
       d="m -15.456196,1035.9619 0,-4.4638 3.159943,0 3.1599767,0 0,4.4638 0,4.4638 -3.1599767,0 -3.159943,0 0,-4.4638 z"
       id="path3312" />
  </g>
</svg>
