<?xml version="1.0" encoding="UTF-8" standalone="no"?>
<!-- Created with Inkscape (http://www.inkscape.org/) -->

<svg
   xmlns:dc="http://purl.org/dc/elements/1.1/"
   xmlns:cc="http://creativecommons.org/ns#"
   xmlns:rdf="http://www.w3.org/1999/02/22-rdf-syntax-ns#"
   xmlns:svg="http://www.w3.org/2000/svg"
   xmlns="http://www.w3.org/2000/svg"
   xmlns:sodipodi="http://sodipodi.sourceforge.net/DTD/sodipodi-0.dtd"
   xmlns:inkscape="http://www.inkscape.org/namespaces/inkscape"
   width="22"
   height="16"
   id="svg5745"
   version="1.1"
   inkscape:version="0.47 r22583"
   sodipodi:docname="kg.svg"
   inkscape:export-filename="/media/0478D38078D36F44/Users/sridhar/Desktop/KrithaWebsite/kritha_347_dark_pro/KrithaWebsite/images/kg.png"
   inkscape:export-xdpi="90"
   inkscape:export-ydpi="90">
  <sodipodi:namedview
     id="base"
     pagecolor="#ffffff"
     bordercolor="#666666"
     borderopacity="1.0"
     inkscape:pageopacity="0.0"
     inkscape:pageshadow="2"
     inkscape:zoom="4.3015958"
     inkscape:cx="22.861284"
     inkscape:cy="46.651168"
     inkscape:document-units="px"
     inkscape:current-layer="layer1"
     showgrid="true"
     inkscape:window-width="1280"
     inkscape:window-height="725"
     inkscape:window-x="0"
     inkscape:window-y="24"
     inkscape:window-maximized="1"
     inkscape:showpageshadow="false"
     borderlayer="false"
     showborder="false">
    <inkscape:grid
       snapvisiblegridlinesonly="true"
       enabled="true"
       visible="true"
       empspacing="5"
       id="grid5755"
       type="xygrid" />
  </sodipodi:namedview>
  <defs
     id="defs5747">
    <inkscape:perspective
       id="perspective5753"
       inkscape:persp3d-origin="372.04724 : 350.78739 : 1"
       inkscape:vp_z="744.09448 : 526.18109 : 1"
       inkscape:vp_y="0 : 1000 : 0"
       inkscape:vp_x="0 : 526.18109 : 1"
       sodipodi:type="inkscape:persp3d" />
    <inkscape:perspective
       id="perspective3696"
       inkscape:persp3d-origin="0.5 : 0.33333333 : 1"
       inkscape:vp_z="1 : 0.5 : 1"
       inkscape:vp_y="0 : 1000 : 0"
       inkscape:vp_x="0 : 0.5 : 1"
       sodipodi:type="inkscape:persp3d" />
  </defs>
  <metadata
     id="metadata5750">
    <rdf:RDF>
      <cc:Work
         rdf:about="">
        <dc:format>image/svg+xml</dc:format>
        <dc:type
           rdf:resource="http://purl.org/dc/dcmitype/StillImage" />
        <dc:title />
      </cc:Work>
    </rdf:RDF>
  </metadata>
  <g
     transform="translate(-223.05788,-541.16595)"
     id="layer1"
     inkscape:groupmode="layer"
     inkscape:label="Layer 1">
    <rect
       y="541.16595"
       x="223.05788"
       height="16"
       width="22"
       id="rect5823"
       style="fill:#1a1a1a;fill-opacity:1;stroke:none" />
    <flowRoot
       transform="translate(-1.5081875,45.196003)"
       style="font-size:40px;font-style:normal;font-variant:normal;font-weight:normal;font-stretch:normal;fill:#000000;fill-opacity:1;stroke:none;font-family:URW Gothic L;-inkscape-font-specification:URW Gothic L Book"
       id="flowRoot5757"
       xml:space="preserve"><flowRegion
         id="flowRegion5759"><rect
           y="491.67847"
           x="224.61905"
           height="64.793961"
           width="98.486816"
           id="rect5761" /></flowRegion><flowPara
         style="font-style:normal;font-variant:normal;font-weight:bold;font-stretch:normal;font-family:TlwgTypewriter;-inkscape-font-specification:TlwgTypewriter Medium"
         id="flowPara5763"><flowSpan
           id="flowSpan5774"
           style="font-size:20px;font-style:normal;font-variant:normal;font-weight:bold;font-stretch:normal;fill:#ff6600;font-family:Tlwg Typo;-inkscape-font-specification:Tlwg Typo Medium">K</flowSpan><flowSpan
           id="flowSpan5771"
           style="font-size:16px;font-style:normal;font-variant:normal;font-weight:bold;font-stretch:normal;fill:#00ccff;font-family:URW Gothic L;-inkscape-font-specification:URW Gothic L Semi-Bold">g</flowSpan></flowPara></flowRoot>    <g
       id="g2981">
      <path
         id="path2983"
         d="M55.0 -39.0C55.0 -39.0 50.732702 -41.536275 50.732702 -41.536275C50.732702 -41.536275 50.669873 -46.5 50.669873 -46.5C50.669873 -46.5 55.0 -48.927451 55.0 -48.927451C55.0 -48.927451 59.330127 -46.5 59.330127 -46.5C59.330127 -46.5 59.267298 -41.536274 59.267298 -41.536274C59.267298 -41.536274 55.0 -39.0 55.0 -39.0C55.0 -39.0 55.0 -39.0 55.0 -39.0"
         style="stroke-linejoin:round;stroke-opacity:1;fill-opacity:1;stroke:#483e37;stroke-linecap:round;stroke-miterlimit:4;stroke-dasharray:none;stroke-width:3;fill:#0044aa" />
      <path
         id="path2985"
         d="M55.0 -39.0C55.0 -39.0 50.732702 -41.536275 50.732702 -41.536275C50.732702 -41.536275 50.669873 -46.5 50.669873 -46.5C50.669873 -46.5 55.0 -48.927451 55.0 -48.927451C55.0 -48.927451 59.330127 -46.5 59.330127 -46.5C59.330127 -46.5 59.267298 -41.536274 59.267298 -41.536274C59.267298 -41.536274 55.0 -39.0 55.0 -39.0C55.0 -39.0 55.0 -39.0 55.0 -39.0"
         style="stroke-linejoin:round;stroke-opacity:1;fill-opacity:1;stroke:#483e37;stroke-linecap:round;stroke-miterlimit:4;stroke-dasharray:none;stroke-width:3;fill:#0044aa" />
      <path
         id="path2987"
         d="M55.0 -39.0C55.0 -39.0 50.732702 -41.536275 50.732702 -41.536275C50.732702 -41.536275 50.669873 -46.5 50.669873 -46.5C50.669873 -46.5 55.0 -48.927451 55.0 -48.927451C55.0 -48.927451 59.330127 -46.5 59.330127 -46.5C59.330127 -46.5 59.267298 -41.536274 59.267298 -41.536274C59.267298 -41.536274 55.0 -39.0 55.0 -39.0C55.0 -39.0 55.0 -39.0 55.0 -39.0"
         style="stroke-linejoin:round;stroke-opacity:1;fill-opacity:1;stroke:#483e37;stroke-linecap:round;stroke-miterlimit:4;stroke-dasharray:none;stroke-width:3;fill:#0044aa" />
      <path
         id="path2989"
         d="M55.0 -39.0C55.0 -39.0 50.732702 -41.536275 50.732702 -41.536275C50.732702 -41.536275 50.669873 -46.5 50.669873 -46.5C50.669873 -46.5 55.0 -48.927451 55.0 -48.927451C55.0 -48.927451 59.330127 -46.5 59.330127 -46.5C59.330127 -46.5 59.267298 -41.536274 59.267298 -41.536274C59.267298 -41.536274 55.0 -39.0 55.0 -39.0C55.0 -39.0 55.0 -39.0 55.0 -39.0"
         style="stroke-linejoin:round;stroke-opacity:1;fill-opacity:1;stroke:#483e37;stroke-linecap:round;stroke-miterlimit:4;stroke-dasharray:none;stroke-width:3;fill:#0044aa" />
      <path
         id="path2991"
         d="M55.0 -39.0C55.0 -39.0 50.732702 -41.536275 50.732702 -41.536275C50.732702 -41.536275 50.669873 -46.5 50.669873 -46.5C50.669873 -46.5 55.0 -48.927451 55.0 -48.927451C55.0 -48.927451 59.330127 -46.5 59.330127 -46.5C59.330127 -46.5 59.267298 -41.536274 59.267298 -41.536274C59.267298 -41.536274 55.0 -39.0 55.0 -39.0C55.0 -39.0 55.0 -39.0 55.0 -39.0"
         style="stroke-linejoin:round;stroke-opacity:1;fill-opacity:1;stroke:#483e37;stroke-linecap:round;stroke-miterlimit:4;stroke-dasharray:none;stroke-width:3;fill:#0044aa" />
      <path
         id="path2993"
         d="M55.0 -39.0C55.0 -39.0 50.732702 -41.536275 50.732702 -41.536275C50.732702 -41.536275 50.669873 -46.5 50.669873 -46.5C50.669873 -46.5 55.0 -48.927451 55.0 -48.927451C55.0 -48.927451 59.330127 -46.5 59.330127 -46.5C59.330127 -46.5 59.267298 -41.536274 59.267298 -41.536274C59.267298 -41.536274 55.0 -39.0 55.0 -39.0C55.0 -39.0 55.0 -39.0 55.0 -39.0"
         style="stroke-linejoin:round;stroke-opacity:1;fill-opacity:1;stroke:#483e37;stroke-linecap:round;stroke-miterlimit:4;stroke-dasharray:none;stroke-width:3;fill:#0044aa" />
      <path
         id="path2995"
         d="M55.0 -39.0C55.0 -39.0 50.732702 -41.536275 50.732702 -41.536275C50.732702 -41.536275 50.669873 -46.5 50.669873 -46.5C50.669873 -46.5 55.0 -48.927451 55.0 -48.927451C55.0 -48.927451 59.330127 -46.5 59.330127 -46.5C59.330127 -46.5 59.267298 -41.536274 59.267298 -41.536274C59.267298 -41.536274 55.0 -39.0 55.0 -39.0C55.0 -39.0 55.0 -39.0 55.0 -39.0"
         style="stroke-linejoin:round;stroke-opacity:1;fill-opacity:1;stroke:#483e37;stroke-linecap:round;stroke-miterlimit:4;stroke-dasharray:none;stroke-width:3;fill:#0044aa" />
    </g>
    <g
       id="g3047">
      <path
         style="stroke-linejoin:round;stroke-opacity:1;fill-opacity:1;stroke:#483e37;stroke-linecap:round;stroke-miterlimit:4;stroke-dasharray:none;stroke-width:3;fill:#0044aa"
         d="M40.0 -24.0C40.0 -24.0 31.339746 -39.0 31.339746 -39.0C31.339746 -39.0 48.660254 -39.0 48.660254 -39.0C48.660254 -39.0 40.0 -24.0 40.0 -24.0C40.0 -24.0 40.0 -24.0 40.0 -24.0"
         id="path3049" />
      <path
         style="stroke-linejoin:round;stroke-opacity:1;fill-opacity:1;stroke:#483e37;stroke-linecap:round;stroke-miterlimit:4;stroke-dasharray:none;stroke-width:3;fill:#0044aa"
         d="M40.0 -24.0C40.0 -24.0 31.339746 -39.0 31.339746 -39.0C31.339746 -39.0 48.660254 -39.0 48.660254 -39.0C48.660254 -39.0 40.0 -24.0 40.0 -24.0C40.0 -24.0 40.0 -24.0 40.0 -24.0"
         id="path3051" />
      <path
         style="stroke-linejoin:round;stroke-opacity:1;fill-opacity:1;stroke:#483e37;stroke-linecap:round;stroke-miterlimit:4;stroke-dasharray:none;stroke-width:3;fill:#0044aa"
         d="M40.0 -24.0C40.0 -24.0 31.339746 -39.0 31.339746 -39.0C31.339746 -39.0 48.660254 -39.0 48.660254 -39.0C48.660254 -39.0 40.0 -24.0 40.0 -24.0C40.0 -24.0 40.0 -24.0 40.0 -24.0"
         id="path3053" />
      <path
         style="stroke-linejoin:round;stroke-opacity:1;fill-opacity:1;stroke:#483e37;stroke-linecap:round;stroke-miterlimit:4;stroke-dasharray:none;stroke-width:3;fill:#0044aa"
         d="M40.0 -24.0C40.0 -24.0 31.339746 -39.0 31.339746 -39.0C31.339746 -39.0 48.660254 -39.0 48.660254 -39.0C48.660254 -39.0 40.0 -24.0 40.0 -24.0C40.0 -24.0 40.0 -24.0 40.0 -24.0"
         id="path3055" />
      <path
         style="stroke-linejoin:round;stroke-opacity:1;fill-opacity:1;stroke:#483e37;stroke-linecap:round;stroke-miterlimit:4;stroke-dasharray:none;stroke-width:3;fill:#0044aa"
         d="M40.0 -24.0C40.0 -24.0 31.339746 -39.0 31.339746 -39.0C31.339746 -39.0 48.660254 -39.0 48.660254 -39.0C48.660254 -39.0 40.0 -24.0 40.0 -24.0C40.0 -24.0 40.0 -24.0 40.0 -24.0"
         id="path3057" />
      <path
         style="stroke-linejoin:round;stroke-opacity:1;fill-opacity:1;stroke:#483e37;stroke-linecap:round;stroke-miterlimit:4;stroke-dasharray:none;stroke-width:3;fill:#0044aa"
         d="M40.0 -24.0C40.0 -24.0 31.339746 -39.0 31.339746 -39.0C31.339746 -39.0 48.660254 -39.0 48.660254 -39.0C48.660254 -39.0 40.0 -24.0 40.0 -24.0C40.0 -24.0 40.0 -24.0 40.0 -24.0"
         id="path3059" />
      <path
         style="stroke-linejoin:round;stroke-opacity:1;fill-opacity:1;stroke:#483e37;stroke-linecap:round;stroke-miterlimit:4;stroke-dasharray:none;stroke-width:3;fill:#0044aa"
         d="M40.0 -24.0C40.0 -24.0 31.339746 -39.0 31.339746 -39.0C31.339746 -39.0 48.660254 -39.0 48.660254 -39.0C48.660254 -39.0 40.0 -24.0 40.0 -24.0C40.0 -24.0 40.0 -24.0 40.0 -24.0"
         id="path3061" />
    </g>
    <path
       id="path3126"
       d="M 12.730209,16.1371801892 L 112.730209,16.1371801892 L 62.730209,-70.4653601892 L 12.730209,16.1371801892 z"
       style="stroke:#000000;stroke-width:2;fill:none"
       inkscape:label="Triangle" />
    <path
       transform="matrix(1,0,-0.70710659,0.70710697,0,0)"
       style="fill:#999999;fill-opacity:1;stroke:#000000;stroke-width:1.18920696"
       d="m 805.22357,766.73828 20,0 0,28.28426 -20,0 0,-28.28426 z"
       id="rect3158" />
    <path
       transform="matrix(1,0,-0.70710659,0.70710697,0,0)"
       style="fill:#999999;fill-opacity:1;stroke:#000000;stroke-width:1.18920696"
       d="m 789.22357,744.11084 20,0 0,28.28426 -20,0 0,-28.28426 z"
       id="rect3160" />
    <g
       style="fill:#000000;fill-opacity:0.3;stroke:#000000;stroke-width:2;stroke-opacity:0.6"
       id="g3408"
       transform="matrix(0.37500031,0,0.41666642,0.55555524,-19.824596,214.8517)">
      <path
         d="m 263.05789,526.16596 -10e-6,16.00002 20,0 10e-6,-16.00002 -20,0"
         id="path3410" />
      <path
         d="m 283.05789,526.16596 -10e-6,16.00002 -19.99999,20 1e-5,-16.00002 19.99999,-20"
         id="path3412" />
      <path
         d="m 263.0579,546.16596 -1e-5,16.00002 -20,0 1e-5,-16.00002 20,0"
         id="path3414" />
      <path
         d="m 243.0579,546.16596 -1e-5,16.00002 19.99999,-20 10e-6,-16.00002 -19.99999,20"
         id="path3416" />
      <path
         d="m 263.05789,526.16596 -10e-6,16.00002 0,0 10e-6,-16.00002 0,0"
         id="path3418" />
      <path
         d="m 263.05789,526.16596 -10e-6,16.00002 0,0 10e-6,-16.00002 0,0"
         id="path3420" />
    </g>
    <path
       style="fill:#808000;stroke:#000000;stroke-width:1px;stroke-linecap:butt;stroke-linejoin:miter;stroke-opacity:1"
       d="m 196.78914,502.21713 -30.68593,17.71653 30.68593,17.71654 30.68594,-17.71654 -30.68594,-17.71653 z"
       id="path3550-2" />
    <path
       style="fill:#00ff00;stroke:#000000;stroke-width:1px;stroke-linecap:butt;stroke-linejoin:miter;stroke-opacity:1"
       d="m 196.78914,484.50059 -30.68593,-17.71654 30.68593,-17.71653 30.68594,17.71653 -30.68594,17.71654 z"
       id="path3552-6" />
    <path
       style="fill:none;stroke:#000000;stroke-width:1px;stroke-linecap:butt;stroke-linejoin:miter;stroke-opacity:1"
       d="m 166.10321,466.78405 c 0,53.14961 0,53.14961 0,53.14961"
       id="path3554-6" />
    <path
       style="fill:#808000;stroke:#000000;stroke-width:1px;stroke-linecap:butt;stroke-linejoin:miter;stroke-opacity:1"
       d="m 227.47508,466.78405 0,53.14961 0,0"
       id="path3556-7" />
    <path
       style="fill:none;stroke:#000000;stroke-width:1px;stroke-linecap:butt;stroke-linejoin:miter;stroke-opacity:1"
       d="m 196.32537,484.48921 0.46377,17.72792 0,0"
       id="path3558-4" />
    <path
       style="fill:none;stroke:#000000;stroke-width:1px;stroke-linecap:butt;stroke-linejoin:miter;stroke-opacity:1"
       d="m 196.78914,502.21713 0,35.43307 0,0"
       id="path3560-1" />
    <path
       style="fill:#cccccc;fill-opacity:1;stroke:#000000;stroke-width:1.72567356;stroke-linecap:round;stroke-linejoin:round;stroke-miterlimit:4;stroke-opacity:1;stroke-dasharray:none"
       d="m 211.85141,509.96962 -14.52728,-8.36258 0.14667,-8.30712 0.14667,-8.30711 14.29937,-8.26389 c 7.86466,-4.54514 14.40343,-8.15984 14.5306,-8.03267 0.12717,0.12717 0.16373,11.34728 0.0812,24.93358 l -0.14998,24.70236 -14.52729,-8.36257 z"
       id="path3562-3" />
    <path
       style="fill:#cccccc;fill-opacity:1;stroke:#000000;stroke-width:1.72567356;stroke-linecap:round;stroke-linejoin:round;stroke-miterlimit:4;stroke-opacity:1;stroke-dasharray:none"
       d="m 166.84296,493.53106 c 0,-13.74968 0.13452,-24.99943 0.29894,-24.99943 0.16442,0 6.63569,3.65827 14.38061,8.12948 l 14.08168,8.12947 0.005,5.53211 c 0.003,3.04266 0.15283,6.82636 0.33351,8.40823 0.32618,2.85564 0.31282,2.88492 -1.87448,4.11078 -1.21165,0.67907 -7.833,4.48684 -14.71413,8.46173 l -12.51113,7.22706 0,-24.99943 z"
       id="path3564-1" />
    <flowRoot
       xml:space="preserve"
       id="flowRoot3587-4"
       style="font-size:40px;font-style:normal;font-variant:normal;font-weight:bold;font-stretch:normal;fill:#000000;fill-opacity:1;stroke:none;font-family:Tlwg Typo;-inkscape-font-specification:Tlwg Typo Medium"
       transform="translate(-10.75619,-38.36553)"><flowRegion
         id="flowRegion3589-9"><rect
           id="rect3591-1"
           width="44.867512"
           height="60.398571"
           x="178.3196"
           y="510.5007" /></flowRegion><flowPara
         id="flowPara3593-1"
         style="fill:#ff0000">K</flowPara></flowRoot>    <flowRoot
       xml:space="preserve"
       id="flowRoot3595-1"
       style="font-size:40px;font-style:normal;font-variant:normal;font-weight:bold;font-stretch:normal;fill:#000000;fill-opacity:1;stroke:none;font-family:Tlwg Typo;-inkscape-font-specification:Tlwg Typo Medium"
       transform="translate(-57.64242,-113.252)"><flowRegion
         id="flowRegion3597-0"><rect
           id="rect3599-2"
           width="59.823349"
           height="43.717064"
           x="259.42624"
           y="578.95239" /></flowRegion><flowPara
         id="flowPara3601-1"
         style="fill:#0044aa">g</flowPara></flowRoot>    <g
       sodipodi:type="inkscape:box3d"
       style="fill:#999999;fill-opacity:1;stroke:#000000;stroke-width:3;stroke-linecap:round;stroke-linejoin:round;stroke-miterlimit:4;stroke-opacity:1;stroke-dasharray:none"
       id="g3783"
       inkscape:perspectiveID="#perspective5753"
       inkscape:corner0="5.6406508 : -2.7152961 : 0 : 1"
       inkscape:corner7="5.2007873 : -2.8278741 : 0.25 : 1">
      <path
         sodipodi:type="inkscape:box3dside"
         id="path3793"
         style="fill:#afafde;fill-rule:evenodd;stroke:none"
         inkscape:box3dsidetype="13"
         d="m 279.0836,483.2399 3.97428,32.08149 26.51205,-18.77044 -5.52248,-29.71933 z" />
      <path
         sodipodi:type="inkscape:box3dside"
         id="path3785"
         style="fill:#353564;fill-rule:evenodd;stroke:none"
         inkscape:box3dsidetype="6"
         d="m 279.0836,466.28704 0,16.95286 24.96385,-16.40828 0,-16.33779 z" />
      <path
         sodipodi:type="inkscape:box3dside"
         id="path3795"
         style="fill:#e9e9ff;fill-rule:evenodd;stroke:none"
         inkscape:box3dsidetype="11"
         d="m 304.04745,450.49383 5.52248,28.60529 0,17.45183 -5.52248,-29.71933 z" />
      <path
         sodipodi:type="inkscape:box3dside"
         id="path3787"
         style="fill:#4d4d9f;fill-rule:evenodd;stroke:none"
         inkscape:box3dsidetype="5"
         d="m 279.0836,466.28704 3.97428,30.87891 26.51205,-18.06683 -5.52248,-28.60529 z" />
      <path
         sodipodi:type="inkscape:box3dside"
         id="path3791"
         style="fill:#d7d7ff;fill-rule:evenodd;stroke:none"
         inkscape:box3dsidetype="14"
         d="m 283.05788,497.16595 0,18.15544 26.51205,-18.77044 0,-17.45183 z" />
      <path
         sodipodi:type="inkscape:box3dside"
         id="path3789"
         style="fill:#8686bf;fill-rule:evenodd;stroke:none"
         inkscape:box3dsidetype="3"
         d="m 279.0836,466.28704 3.97428,30.87891 0,18.15544 -3.97428,-32.08149 z" />
    </g>
  </g>
</svg>
